<svg xmlns="http://www.w3.org/2000/svg" xmlns:xlink="http://www.w3.org/1999/xlink" viewBox="0 0 388.33 277"><defs><style>.cls-1{fill:url(#linear-gradient);}.cls-2,.cls-3{fill:#d69241;}.cls-11,.cls-12,.cls-14,.cls-15,.cls-2{stroke:#050505;}.cls-10,.cls-11,.cls-12,.cls-14,.cls-15,.cls-2,.cls-3,.cls-4,.cls-5,.cls-6{stroke-miterlimit:10;}.cls-10,.cls-3,.cls-4,.cls-5,.cls-6{stroke:#000;}.cls-4{fill:#5b3a38;}.cls-5{fill:#45302d;}.cls-6{fill:#754f4b;}.cls-7{fill:#fffdfd;}.cls-8{fill:#493636;}.cls-9{fill:#a05e3a;}.cls-10,.cls-14{fill:none;}.cls-11{fill:#bc404c;}.cls-12{fill:#7a4c48;}.cls-13{fill:#993746;}.cls-15{fill:#fff;}</style><linearGradient id="linear-gradient" x1="-962.99" y1="700.25" x2="-963.17" y2="698.87" gradientTransform="matrix(296, 0, 0, -211, 285294.15, 147710.12)" gradientUnits="userSpaceOnUse"><stop offset="0" stop-color="#2b9dff"/><stop offset="1" stop-color="#a52bff"/></linearGradient></defs><g id="Layer_2" data-name="Layer 2"><g id="Layer_1-2" data-name="Layer 1"><path id="Union_28" data-name="Union 28" class="cls-1" d="M0,277,109.1,44.85A78,78,0,0,1,180,0L246.8.19A137.86,137.86,0,0,1,335,31.9h22.14a4,4,0,0,1,0,7.92H343.76q2,1.95,3.88,4h30.25a4.12,4.12,0,0,1,4.19,3.75,4,4,0,0,1-4,4.18H354.55a138.48,138.48,0,0,1,7.3,163.84h12.86a3.63,3.63,0,0,1,3.63,3.63h0a3.63,3.63,0,0,1-3.63,3.64H356.63q-1.54,2-3.16,4H387a1.33,1.33,0,0,1,1.32,1.32h0a1.33,1.33,0,0,1-1.32,1.32H351.23A138.1,138.1,0,0,1,246.8,277Z"/><rect id="Rectangle_611" data-name="Rectangle 611" class="cls-2" x="198.02" y="160.04" width="15.78" height="46.79"/><path id="Path_579" data-name="Path 579" class="cls-3" d="M167.44,135.54s-7-3.43-4.94,6.82,12.34,12.54,12.34,12.54,13,29,31.36,29.39,27.4-30.61,27.4-30.61,11.4-1.87,14.13-13.08-5.25-5.61-5.25-5.61l-1.86-23.27-11-19L176.36,100Z"/><path id="Path_580" data-name="Path 580" class="cls-4" d="M241.78,91.72c2.15-1.1,4.92-4.3,7.56.42s2.84,6.93,2.76,11.65S240.74,142.53,238,143.92s-3.88,1.32-4.64.69-1.6-37.43-1.6-37.43-.48-3.25-1.24-4S241.78,91.72,241.78,91.72Z"/><path id="Path_581" data-name="Path 581" class="cls-4" d="M163.68,99.5l1.11,30.08L173,148s2.7,2.36,4,.56.34-43.31.34-43.31Z"/><path id="Path_583" data-name="Path 583" class="cls-5" d="M188,126.84s6.2-4.73,9.83-.18Z"/><path id="Path_584" data-name="Path 584" class="cls-5" d="M220.62,126.09s-6.43-4.41-9.83.31Z"/><circle id="Ellipse_72" data-name="Ellipse 72" class="cls-6" cx="193.12" cy="134.93" r="3.72"/><circle id="Ellipse_73" data-name="Ellipse 73" class="cls-7" cx="192.39" cy="134.26" r="1.28"/><circle id="Ellipse_74" data-name="Ellipse 74" class="cls-6" cx="215.7" cy="134.75" r="3.72"/><circle id="Ellipse_75" data-name="Ellipse 75" class="cls-7" cx="214.67" cy="134.38" r="1.18"/><path id="Path_585" data-name="Path 585" class="cls-8" d="M171.75,85.51a11,11,0,0,0,2.51,4.34l3.07,3.82c-.19-.24-1.19-.39-1.5-.52-.48-.2-.93-.43-1.39-.67a3.33,3.33,0,0,1-1.41-1,7.5,7.5,0,0,1-.78-2.61C172,87.73,171.89,86.63,171.75,85.51Z"/><path id="Path_586" data-name="Path 586" class="cls-8" d="M165.69,95.62a3.68,3.68,0,0,0,2.37,2c-1.63-4-3.1-8.15-4.92-12.06A17.17,17.17,0,0,0,165.69,95.62Z"/><path id="Path_587" data-name="Path 587" class="cls-8" d="M159.75,95.37l2.42,3.19c.38.52,2,2,1.68,2.69-.92-.33-1.9-1.76-2.46-2.55a12.15,12.15,0,0,1-1.64-3.33Z"/><path id="Path_588" data-name="Path 588" class="cls-8" d="M245.52,92.32l-2.15,3.38a21.8,21.8,0,0,1-2.3,3.18,7.2,7.2,0,0,1-3.24,2.15,5.07,5.07,0,0,1,2.52-1.15,23.53,23.53,0,0,0,3-.28,4.72,4.72,0,0,0,3-3.88,13.85,13.85,0,0,0-.47-5.12l-.87,2.29"/><path id="Path_589" data-name="Path 589" class="cls-8" d="M170.13,112.05a6.71,6.71,0,0,0,4.39,1.7,6.3,6.3,0,0,1-4.8-1.34,19,19,0,0,1-3.46-3.75,4.28,4.28,0,0,1-1.23-2.89c.79,1.14,1.61,2.24,2.44,3.34C168.16,110,169.09,111.52,170.13,112.05Z"/><path id="Path_590" data-name="Path 590" class="cls-8" d="M173.74,127.18a43.78,43.78,0,0,1-.3,11.88,3.88,3.88,0,0,0-.06,1.52,5.22,5.22,0,0,0,1.35,2,6.89,6.89,0,0,1,1.54,3.3,84.52,84.52,0,0,0-.38-11.8l-.4-5.16c-.2-2.55-.4-5.1-.62-7.65a21.73,21.73,0,0,0-1,6.7"/><path id="Path_591" data-name="Path 591" class="cls-9" d="M165.83,145.4a12,12,0,0,0,5,5.15,28.42,28.42,0,0,1-2.38-6c-.31-1.17-.45-5.72-2.17-4.92S165.28,144.14,165.83,145.4Z"/><path id="Path_592" data-name="Path 592" class="cls-9" d="M241.91,145.33a9.69,9.69,0,0,1-4.09,4.17,23.55,23.55,0,0,0,1.92-4.85c.26-.94.37-4.63,1.76-4S242.35,144.31,241.91,145.33Z"/><path id="Path_593" data-name="Path 593" class="cls-3" d="M192.39,161.07a25.48,25.48,0,0,0,5.43,1.6,34.38,34.38,0,0,0,18.73-1.6"/><path id="Path_594" data-name="Path 594" class="cls-10" d="M190.73,158.2a2.76,2.76,0,0,0-1.8,3.48,2.09,2.09,0,0,0,.08.23"/><path id="Path_595" data-name="Path 595" class="cls-10" d="M219.17,157.05s3.19.36,2.67,3"/><path id="Path_596" data-name="Path 596" class="cls-9" d="M204.87,149a4,4,0,0,0,1.63,4.34,2.9,2.9,0,0,1-.72-2.07,7.57,7.57,0,0,1,.64-2.48l.67-1.74a4.48,4.48,0,0,0-2.33,3.06"/><path class="cls-11" d="M167.89,238.11a58.89,58.89,0,0,1,2-6.11v6.11h72.84v-7.56a31.32,31.32,0,0,0-.17-3.23,53.88,53.88,0,0,1,4.16,10.79h12.33C250.31,201.24,225,199.54,225,199.54a36.69,36.69,0,0,0-8.39.39,31.14,31.14,0,0,0-4.86-.39H200.92a32.59,32.59,0,0,0-3.72.23,39.92,39.92,0,0,0-7.58-.23s-25.31,1.7-34.07,38.57Z"/><path id="Rectangle_612" data-name="Rectangle 612" class="cls-12" d="M286,238.37h6.54c1.23,0,2.22.58,2.22,1.29h0c0,.71-1,1.29-2.22,1.29H286c-1.23,0-2.22-.58-2.22-1.29h0C283.75,239,284.74,238.37,286,238.37Z"/><path class="cls-9" d="M211.47,184.55a2.26,2.26,0,0,1,.7-.51,1,1,0,0,1,1.46,1c-.45,2.69.13,5.45-.44,8.09,0-8.57-3.47-6.61-7.31-8.28C208.33,185.38,209,184.72,211.47,184.55Z"/><path class="cls-13" d="M212.33,204.26c27.42-6,38.32,26.4,41.11,33.63l4.31.75a49.29,49.29,0,0,0-20.31-33,20.59,20.59,0,0,0-9.65-4,12.35,12.35,0,0,0-1.3-.55c-4-1.34-8.25-.82-12.38-.28,2-.1-2.37-.83-2,1.11a7,7,0,0,1,.06,2.24"/><path class="cls-13" d="M202.67,204.26c-31.63-6.92-38.67,27.32-41.1,33.63l-4.32.75a49.32,49.32,0,0,1,20.31-33,20.63,20.63,0,0,1,9.65-4,12.51,12.51,0,0,1,1.31-.55c3.94-1.34,8.25-.82,12.38-.28-2-.1,2.36-.83,2,1.11a7.64,7.64,0,0,0-.06,2.24"/><path class="cls-14" d="M229.87,219.77a38.91,38.91,0,0,1-15.94,15.46"/><path class="cls-14" d="M225.79,230a48.84,48.84,0,0,1-10.68,9.55"/><path id="Rectangle_612-2" data-name="Rectangle 612" class="cls-12" d="M133.43,238.37H277.08c1.23,0,2.23.58,2.23,1.29h0c0,.71-1,1.29-2.23,1.29H133.43c-1.22,0-2.22-.58-2.22-1.29h0C131.21,239,132.21,238.37,133.43,238.37Z"/><rect class="cls-15" x="193.63" y="196.04" width="11.43" height="7.4" transform="translate(199.62 -82.45) rotate(45)"/><rect class="cls-15" x="207.34" y="196.04" width="11.43" height="7.4" transform="translate(504.94 190.33) rotate(135)"/><path d="M246.06,129.86s0-58.87-40.69-53.52-38.65,53.52-38.65,53.52-22.38,18.73,4.07,24.08,2,0,2,0S154.51,87.05,205.37,81.7s30.52,72.24,30.52,72.24-3.57,23.51-22.46,17.63c-.41-3.91-2.94-6.93-6-6.93-3.37,0-6.11,3.59-6.11,8s2.74,8,6.11,8c2.58,0,4.77-2.11,5.67-5.09,5.22.63,21.76.77,26.88-21.66C240,153.94,264.38,143.23,246.06,129.86Z"/><path id="Path_582" data-name="Path 582" class="cls-4" d="M155.48,86.54s9.71,46.16,63.15,23.36,15.23-42.79-1.15-33.59-41.15,17.47-46.94,3.59a18.5,18.5,0,0,0,1.3,13.29s-10.05-4.5-7.9-13.72c0,0-4.85,5.29.21,17.26C164.15,96.73,159.16,96.66,155.48,86.54Z"/></g></g></svg>