<svg xmlns="http://www.w3.org/2000/svg" xmlns:xlink="http://www.w3.org/1999/xlink" viewBox="0 0 388.33 277"><defs><style>.cls-1{fill:url(#linear-gradient);}.cls-2,.cls-3{fill:#d69241;}.cls-11,.cls-12,.cls-17,.cls-18,.cls-2{stroke:#050505;}.cls-10,.cls-11,.cls-12,.cls-17,.cls-18,.cls-2,.cls-3,.cls-4,.cls-5,.cls-6{stroke-miterlimit:10;}.cls-10,.cls-3,.cls-4,.cls-5,.cls-6{stroke:#000;}.cls-4{fill:#5b3a38;}.cls-5{fill:#45302d;}.cls-6{fill:#754f4b;}.cls-7{fill:#fffdfd;}.cls-8{fill:#493636;}.cls-9{fill:#a05e3a;}.cls-10,.cls-17{fill:none;}.cls-11{fill:#bc404c;}.cls-12{fill:#7a4c48;}.cls-13{fill:#e2dd17;}.cls-14{fill:#d87736;}.cls-15,.cls-18{fill:#fff;}.cls-16{fill:#993746;}.cls-19{fill:#db374b;}</style><linearGradient id="linear-gradient" x1="-116.86" y1="744.46" x2="-117.04" y2="743.08" gradientTransform="matrix(296, 0, 0, -211, 34839.15, 157038.12)" gradientUnits="userSpaceOnUse"><stop offset="0" stop-color="#2b9dff"/><stop offset="1" stop-color="#a52bff"/></linearGradient></defs><g id="Layer_2" data-name="Layer 2"><g id="Layer_1-2" data-name="Layer 1"><path id="Union_28" data-name="Union 28" class="cls-1" d="M0,277,109.1,44.85A78,78,0,0,1,180,0L246.8.19A137.86,137.86,0,0,1,335,31.9h22.14a4,4,0,0,1,0,7.92H343.76q2,1.95,3.88,4h30.25a4.12,4.12,0,0,1,4.19,3.75,4,4,0,0,1-4,4.18H354.55a138.48,138.48,0,0,1,7.3,163.84h12.86a3.63,3.63,0,0,1,3.63,3.63h0a3.63,3.63,0,0,1-3.63,3.64H356.63q-1.54,2-3.16,4H387a1.33,1.33,0,0,1,1.32,1.32h0a1.33,1.33,0,0,1-1.32,1.32H351.23A138.1,138.1,0,0,1,246.8,277Z"/><rect id="Rectangle_611" data-name="Rectangle 611" class="cls-2" x="181.02" y="154.04" width="15.78" height="46.79"/><path id="Path_579" data-name="Path 579" class="cls-3" d="M150.44,129.54s-7-3.43-4.94,6.82,12.34,12.54,12.34,12.54,13,29,31.36,29.39,27.4-30.61,27.4-30.61,11.4-1.87,14.13-13.08-5.25-5.61-5.25-5.61l-1.86-23.27-11-19L159.36,94Z"/><path id="Path_580" data-name="Path 580" class="cls-4" d="M224.78,85.72c2.15-1.1,4.92-4.3,7.56.42s2.84,6.93,2.76,11.65S223.74,136.53,221,137.92s-3.88,1.32-4.64.69-1.6-37.43-1.6-37.43-.48-3.25-1.24-4S224.78,85.72,224.78,85.72Z"/><path id="Path_581" data-name="Path 581" class="cls-4" d="M146.68,93.5l1.11,30.08L156,142s2.7,2.36,4,.56.34-43.31.34-43.31Z"/><path id="Path_582" data-name="Path 582" class="cls-4" d="M138.48,80.54s9.71,46.16,63.15,23.36,15.23-42.79-1.15-33.59-41.15,17.47-46.94,3.59a18.5,18.5,0,0,0,1.3,13.29s-10.05-4.5-7.9-13.72c0,0-4.85,5.29.21,17.26C147.15,90.73,142.16,90.66,138.48,80.54Z"/><path id="Path_583" data-name="Path 583" class="cls-5" d="M171,120.84s6.2-4.73,9.83-.18Z"/><path id="Path_584" data-name="Path 584" class="cls-5" d="M203.62,120.09s-6.43-4.41-9.83.31Z"/><circle id="Ellipse_72" data-name="Ellipse 72" class="cls-6" cx="176.12" cy="128.93" r="3.72"/><circle id="Ellipse_73" data-name="Ellipse 73" class="cls-7" cx="175.39" cy="128.26" r="1.28"/><circle id="Ellipse_74" data-name="Ellipse 74" class="cls-6" cx="198.7" cy="128.75" r="3.72"/><circle id="Ellipse_75" data-name="Ellipse 75" class="cls-7" cx="197.67" cy="128.38" r="1.18"/><path id="Path_585" data-name="Path 585" class="cls-8" d="M154.75,79.51a11,11,0,0,0,2.51,4.34l3.07,3.82c-.19-.24-1.19-.39-1.5-.52-.48-.2-.93-.43-1.39-.67a3.33,3.33,0,0,1-1.41-1,7.5,7.5,0,0,1-.78-2.61C155,81.73,154.89,80.63,154.75,79.51Z"/><path id="Path_586" data-name="Path 586" class="cls-8" d="M148.69,89.62a3.68,3.68,0,0,0,2.37,2c-1.63-4-3.1-8.15-4.92-12.06A17.17,17.17,0,0,0,148.69,89.62Z"/><path id="Path_587" data-name="Path 587" class="cls-8" d="M142.75,89.37l2.42,3.19c.38.52,2,2,1.68,2.69-.92-.33-1.9-1.76-2.46-2.55a12.15,12.15,0,0,1-1.64-3.33Z"/><path id="Path_588" data-name="Path 588" class="cls-8" d="M228.52,86.32l-2.15,3.38a21.8,21.8,0,0,1-2.3,3.18A7.2,7.2,0,0,1,220.83,95a5.07,5.07,0,0,1,2.52-1.15,23.53,23.53,0,0,0,3-.28,4.72,4.72,0,0,0,3-3.88,13.85,13.85,0,0,0-.47-5.12l-.87,2.29"/><path id="Path_589" data-name="Path 589" class="cls-8" d="M153.13,106.05a6.71,6.71,0,0,0,4.39,1.7,6.3,6.3,0,0,1-4.8-1.34,19,19,0,0,1-3.46-3.75A4.28,4.28,0,0,1,148,99.77c.79,1.14,1.61,2.24,2.44,3.34C151.16,104,152.09,105.52,153.13,106.05Z"/><path id="Path_590" data-name="Path 590" class="cls-8" d="M156.74,121.18a43.78,43.78,0,0,1-.3,11.88,3.88,3.88,0,0,0-.06,1.52,5.22,5.22,0,0,0,1.35,2,6.89,6.89,0,0,1,1.54,3.3,84.52,84.52,0,0,0-.38-11.8l-.4-5.16c-.2-2.55-.4-5.1-.62-7.65a21.73,21.73,0,0,0-1,6.7"/><path id="Path_591" data-name="Path 591" class="cls-9" d="M148.83,139.4a12,12,0,0,0,5,5.15,28.42,28.42,0,0,1-2.38-6c-.31-1.17-.45-5.72-2.17-4.92S148.28,138.14,148.83,139.4Z"/><path id="Path_592" data-name="Path 592" class="cls-9" d="M224.91,139.33a9.69,9.69,0,0,1-4.09,4.17,23.55,23.55,0,0,0,1.92-4.85c.26-.94.37-4.63,1.76-4S225.35,138.31,224.91,139.33Z"/><path id="Path_593" data-name="Path 593" class="cls-3" d="M175.39,155.07a25.48,25.48,0,0,0,5.43,1.6,34.38,34.38,0,0,0,18.73-1.6"/><path id="Path_594" data-name="Path 594" class="cls-10" d="M173.73,152.2a2.76,2.76,0,0,0-1.8,3.48,2.09,2.09,0,0,0,.08.23"/><path id="Path_595" data-name="Path 595" class="cls-10" d="M202.17,151.05s3.19.36,2.67,3"/><path id="Path_596" data-name="Path 596" class="cls-9" d="M187.87,143a4,4,0,0,0,1.63,4.34,2.9,2.9,0,0,1-.72-2.07,7.57,7.57,0,0,1,.64-2.48l.67-1.74a4.48,4.48,0,0,0-2.33,3.06"/><path class="cls-11" d="M150.89,232.11a58.89,58.89,0,0,1,2-6.11v6.11h72.84v-7.56a31.32,31.32,0,0,0-.17-3.23,53.88,53.88,0,0,1,4.16,10.79h12.33C233.31,195.24,208,193.54,208,193.54a36.69,36.69,0,0,0-8.39.39,31.14,31.14,0,0,0-4.86-.39H183.92a32.59,32.59,0,0,0-3.72.23,39.92,39.92,0,0,0-7.58-.23s-25.31,1.7-34.07,38.57Z"/><path id="Rectangle_612" data-name="Rectangle 612" class="cls-12" d="M269,232.37h6.54c1.23,0,2.22.58,2.22,1.29h0c0,.71-1,1.29-2.22,1.29H269c-1.23,0-2.22-.58-2.22-1.29h0C266.75,233,267.74,232.37,269,232.37Z"/><circle class="cls-13" cx="261.96" cy="132.06" r="10.5"/><path class="cls-7" d="M259.06,127.19h1.25v6.48c0,2.57-1.27,3.36-2.93,3.36a4.35,4.35,0,0,1-1.34-.23l.19-1a3,3,0,0,0,1,.18c1.12,0,1.78-.5,1.78-2.4Z"/><path class="cls-7" d="M262.22,135.35a4.45,4.45,0,0,0,2.24.63c1.27,0,2-.68,2-1.65s-.52-1.43-1.82-1.93c-1.58-.56-2.56-1.38-2.56-2.74s1.25-2.63,3.13-2.63a4.32,4.32,0,0,1,2.14.48l-.34,1a3.81,3.81,0,0,0-1.84-.46c-1.32,0-1.82.79-1.82,1.45,0,.9.58,1.35,1.92,1.86,1.64.63,2.47,1.42,2.47,2.85s-1.11,2.78-3.39,2.78a5,5,0,0,1-2.47-.62Z"/><circle class="cls-14" cx="287.88" cy="163.98" r="19.71"/><path class="cls-15" d="M276.62,158.78V162h3.74v-3.24h1v7.74h-1v-3.63h-3.74v3.63h-1v-7.74Z"/><path class="cls-15" d="M284.59,159.63h-2.36v-.85H288v.85H285.6v6.89h-1Z"/><path class="cls-15" d="M295.36,163.12c-.06-1.08-.13-2.38-.12-3.34h0c-.27.9-.59,1.87-1,2.94l-1.37,3.76h-.76l-1.25-3.69a31.15,31.15,0,0,1-.89-3h0c0,1-.08,2.26-.15,3.42l-.2,3.32h-1l.54-7.74h1.28l1.32,3.74c.32,1,.59,1.81.78,2.61h0c.19-.78.47-1.63.81-2.61l1.38-3.74h1.28l.48,7.74h-1Z"/><path class="cls-15" d="M298.07,158.78h1v6.9h3.31v.84h-4.31Z"/><path class="cls-9" d="M194.47,178.55a2.26,2.26,0,0,1,.7-.51,1,1,0,0,1,1.46,1c-.45,2.69.13,5.45-.44,8.09,0-8.57-3.47-6.61-7.31-8.28C191.33,179.38,192,178.72,194.47,178.55Z"/><path class="cls-16" d="M195.33,198.26c27.42-6,38.32,26.4,41.11,33.63l4.31.75a49.29,49.29,0,0,0-20.31-33,20.59,20.59,0,0,0-9.65-4,12.35,12.35,0,0,0-1.3-.55c-4-1.34-8.25-.82-12.38-.28,2-.1-2.37-.83-2,1.11a7,7,0,0,1,.06,2.24"/><path class="cls-16" d="M185.67,198.26c-31.63-6.92-38.67,27.32-41.1,33.63l-4.32.75a49.32,49.32,0,0,1,20.31-33,20.63,20.63,0,0,1,9.65-4,12.51,12.51,0,0,1,1.31-.55c3.94-1.34,8.25-.82,12.38-.28-2-.1,2.36-.83,2,1.11a7.64,7.64,0,0,0-.06,2.24"/><path class="cls-17" d="M212.87,213.77a38.91,38.91,0,0,1-15.94,15.46"/><path class="cls-17" d="M208.79,224a48.84,48.84,0,0,1-10.68,9.55"/><path id="Rectangle_612-2" data-name="Rectangle 612" class="cls-12" d="M116.43,232.37H260.08c1.23,0,2.23.58,2.23,1.29h0c0,.71-1,1.29-2.23,1.29H116.43c-1.22,0-2.22-.58-2.22-1.29h0C114.21,233,115.21,232.37,116.43,232.37Z"/><rect class="cls-18" x="176.63" y="190.04" width="11.43" height="7.4" transform="translate(190.4 -72.19) rotate(45)"/><rect class="cls-18" x="190.34" y="190.04" width="11.43" height="7.4" transform="translate(471.67 192.11) rotate(135)"/><circle class="cls-19" cx="295.59" cy="114.28" r="16.28"/><path class="cls-15" d="M292.92,117.78a5.31,5.31,0,0,1-2.2.4,3.9,3.9,0,0,1-4.13-4.22,4.15,4.15,0,0,1,4.36-4.39,4.44,4.44,0,0,1,2,.37l-.26.88a3.9,3.9,0,0,0-1.68-.34,3.1,3.1,0,0,0-3.26,3.44,3,3,0,0,0,3.21,3.36,4.34,4.34,0,0,0,1.76-.35Z"/><path class="cls-15" d="M294.13,116.74a3.78,3.78,0,0,0,1.93.55c1.1,0,1.75-.58,1.75-1.43s-.45-1.22-1.58-1.66c-1.36-.48-2.2-1.19-2.2-2.36s1.07-2.27,2.7-2.27a3.78,3.78,0,0,1,1.84.41l-.29.88a3.33,3.33,0,0,0-1.59-.4c-1.14,0-1.57.68-1.57,1.25,0,.78.5,1.17,1.66,1.61,1.41.55,2.13,1.23,2.13,2.46s-1,2.4-2.93,2.4a4.31,4.31,0,0,1-2.13-.53Z"/><path class="cls-15" d="M300.24,116.74a3.78,3.78,0,0,0,1.93.55c1.1,0,1.75-.58,1.75-1.43s-.45-1.22-1.58-1.66c-1.36-.48-2.2-1.19-2.2-2.36s1.07-2.27,2.7-2.27a3.78,3.78,0,0,1,1.84.41l-.29.88a3.33,3.33,0,0,0-1.59-.4c-1.14,0-1.57.68-1.57,1.25,0,.78.51,1.17,1.66,1.61,1.41.55,2.13,1.23,2.13,2.46s-1,2.4-2.93,2.4a4.31,4.31,0,0,1-2.13-.53Z"/></g></g></svg>