<svg xmlns="http://www.w3.org/2000/svg" xmlns:xlink="http://www.w3.org/1999/xlink" viewBox="0 0 388.33 277"><defs><style>.cls-1{fill:url(#linear-gradient);}.cls-2{fill:#42a145;}.cls-3{fill:#fad209;}.cls-4{fill:#eab91a;}.cls-5{fill:#e64540;}.cls-6{fill:#e4e3e3;}.cls-7{fill:#0c5a92;}.cls-8{fill:#6d4645;}.cls-11,.cls-12,.cls-13,.cls-14,.cls-15,.cls-17,.cls-20,.cls-8{stroke:#000;}.cls-10,.cls-11,.cls-12,.cls-13,.cls-14,.cls-15,.cls-16,.cls-17,.cls-19,.cls-20,.cls-22,.cls-8{stroke-miterlimit:10;}.cls-9{fill:#493636;}.cls-10{fill:#7a4c48;}.cls-10,.cls-16,.cls-19,.cls-22{stroke:#050505;}.cls-11{fill:#5285a1;}.cls-11,.cls-12,.cls-13,.cls-14,.cls-15{stroke-width:0.5px;}.cls-12{fill:#fcf1e1;}.cls-13{fill:#fed6b7;}.cls-14{fill:#034f78;}.cls-15{fill:#fefefe;}.cls-16,.cls-17{fill:#d69241;}.cls-18{fill:#a05e3a;}.cls-19{fill:#bc404c;}.cls-20{fill:#5b3a38;}.cls-21{fill:#993746;}.cls-22{fill:#fff;}</style><linearGradient id="linear-gradient" x1="-118.17" y1="360.66" x2="-117.75" y2="361.98" gradientTransform="matrix(-296, 0, 0, 211, -34767.83, -76109.06)" gradientUnits="userSpaceOnUse"><stop offset="0" stop-color="#2b9dff"/><stop offset="1" stop-color="#a52bff"/></linearGradient></defs><g id="Layer_2" data-name="Layer 2"><g id="Layer_1-2" data-name="Layer 1"><path id="Union_28" data-name="Union 28" class="cls-1" d="M388.33,0,279.22,232.15A78,78,0,0,1,208.38,277l-66.85-.19A137.86,137.86,0,0,1,53.36,245.1H31.22a4,4,0,0,1,0-7.92H44.57q-2-2-3.88-4H10.43a4.11,4.11,0,0,1-4.18-3.75,4,4,0,0,1,4-4.18H33.78A138.46,138.46,0,0,1,26.47,61.44H13.62A3.64,3.64,0,0,1,10,57.81h0a3.64,3.64,0,0,1,3.64-3.64H31.7q1.54-2,3.16-4H1.32A1.32,1.32,0,0,1,0,48.89H0a1.32,1.32,0,0,1,1.32-1.32H37.1A138.08,138.08,0,0,1,141.53,0Z"/><path class="cls-2" d="M164.58,212.63h-2.09c-.08-.18-.24-.18-.4-.19a65,65,0,0,1-10.39-1.79,72,72,0,0,1-8-2.55,77.18,77.18,0,0,1-30.26-20.53A72.65,72.65,0,0,1,104.34,175,76.9,76.9,0,0,1,95,123.23a77.54,77.54,0,0,1,5.34-17.59,69.59,69.59,0,0,1,6.5-11.75,1.38,1.38,0,0,1,.27.27q2.32,4,4.64,8c2.54,4.38,5.09,8.75,7.61,13.13,1.56,2.7,3.09,5.42,4.64,8.12l7,12.17c1.25,2.18,2.45,4.4,3.75,6.54.89,1.46,1.43,3.13,2.67,4.38a34.25,34.25,0,0,0,57.11,13.53c.22-.22.28-.67.74-.63.12.85-.55,1.38-.91,2-5.23,9-10.52,17.89-15.76,26.85-1.39,2.38-2.88,4.7-4.1,7.18a4.78,4.78,0,0,0-1.25,1.86c-1.08,2.26-2.74,4.17-3.71,6.53-.39,1-1.26,1.82-1.77,2.83a45.53,45.53,0,0,1-3.08,5.22C164.5,212.15,164.59,212.39,164.58,212.63Z"/><path class="cls-3" d="M174.48,195.46c1.22-2.48,2.71-4.8,4.1-7.18,5.24-9,10.53-17.89,15.76-26.85.36-.62,1-1.15.91-2a37,37,0,0,0,6.5-11A30.69,30.69,0,0,0,203.6,140a33.72,33.72,0,0,0-1-11.91,38.66,38.66,0,0,0-3.35-8.22,33.81,33.81,0,0,0-12-12.32,32.19,32.19,0,0,0-11.83-4.42c.28-.35.68-.31,1.06-.31h62.23c.9.79,1,2,1.44,3a53.66,53.66,0,0,1,3.49,9.54,52,52,0,0,1,2,9.83,1.92,1.92,0,0,0,.71,1.27v1.72a1.46,1.46,0,0,0,0,2.1v12.2c-.27,2.12-.5,4.26-.84,6.37-.31,1.93-.65,3.85-1.14,5.73a77,77,0,0,1-2.67,8.55,51.44,51.44,0,0,1-3,6.8,1.09,1.09,0,0,0-.69,1.19h0c-.43.1-.44.42-.4.78h0c-.82-.41-3-.34-3.31.24-.48,1-1.31,1-2.16,1a1.28,1.28,0,0,0-.94.37,1.87,1.87,0,0,1-1.64.59,1.68,1.68,0,0,0-1.67.69,1.4,1.4,0,0,1-1.38.64A1.57,1.57,0,0,0,225,176a2.1,2.1,0,0,1-1.47,1c-1.07.16-2,.8-3.1.81a1.79,1.79,0,0,0-1.69.88,1.06,1.06,0,0,1-.9.48,2.5,2.5,0,0,0-2.39,1.24c-.15.28-.53.32-.85.37-.81.11-1.64.14-2.12,1-.15.28-.54.33-.86.32-1.54-.07-2.79,1.06-4.32,1-.16,0-.39.24-.48.42-.49,1-1.42,1.12-2.34,1.42-1.14.38-2.17,1.11-3.45,1.08-.15,0-.31.21-.45.33a1.56,1.56,0,0,1-.95.41c-1.32,0-2.38.8-3.55,1.24s-2.29,1.6-3.83,1.38a1,1,0,0,0-.92.6,1.37,1.37,0,0,1-1.38.66,1.75,1.75,0,0,0-1.72.78,2.73,2.73,0,0,1-1.73.91,20.74,20.74,0,0,1-3.4.8.89.89,0,0,0-.71.43,2,2,0,0,1-1.88.89,1.18,1.18,0,0,0-1.15.54,2.32,2.32,0,0,1-2.46,1.09c-.69,0-1,.08-1.3.72a.94.94,0,0,1-1.31.44c-.66-.26-.11-.67,0-1S174.41,195.74,174.48,195.46Z"/><path class="cls-4" d="M237.65,171.88a5.29,5.29,0,0,1-1.55,2.72c-.06-.48.45-.88.16-1.56-.24.62-.85,1-.17,1.56a5.12,5.12,0,0,1-1.25,2.46,78.12,78.12,0,0,1-20.71,21.81,81.19,81.19,0,0,1-10.56,6.25,75.59,75.59,0,0,1-13.69,5.15,69.24,69.24,0,0,1-8.24,1.72,14,14,0,0,0-3.9.64H164.58c0-.24-.08-.48.09-.73a45.53,45.53,0,0,0,3.08-5.22c.51-1,1.38-1.87,1.77-2.83,1-2.36,2.63-4.27,3.71-6.53a4.78,4.78,0,0,1,1.25-1.86c-.07.28-.14.55-.2.83s-.63.76,0,1a.94.94,0,0,0,1.31-.44c.26-.64.61-.75,1.3-.72a2.32,2.32,0,0,0,2.46-1.09,1.18,1.18,0,0,1,1.15-.54,2,2,0,0,0,1.88-.89.89.89,0,0,1,.71-.43,20.74,20.74,0,0,0,3.4-.8,2.73,2.73,0,0,0,1.73-.91,1.75,1.75,0,0,1,1.72-.78,1.37,1.37,0,0,0,1.38-.66,1,1,0,0,1,.92-.6c1.54.22,2.56-.91,3.83-1.38s2.23-1.21,3.55-1.24a1.56,1.56,0,0,0,.95-.41c.14-.12.3-.33.45-.33,1.28,0,2.31-.7,3.45-1.08.92-.3,1.85-.44,2.34-1.42.09-.18.32-.42.48-.42,1.53,0,2.78-1.12,4.32-1,.32,0,.71,0,.86-.32.48-.87,1.31-.9,2.12-1,.32,0,.7-.09.85-.37a2.5,2.5,0,0,1,2.39-1.24,1.06,1.06,0,0,0,.9-.48,1.79,1.79,0,0,1,1.69-.88c1.11,0,2-.65,3.1-.81a2.1,2.1,0,0,0,1.47-1,1.57,1.57,0,0,1,1.53-.58,1.4,1.4,0,0,0,1.38-.64,1.68,1.68,0,0,1,1.67-.69,1.87,1.87,0,0,0,1.64-.59,1.28,1.28,0,0,1,.94-.37c.85-.07,1.68-.07,2.16-1C234.63,171.54,236.83,171.47,237.65,171.88Zm-3.34,1.31s.05,0,.06,0,0,0,0-.06,0,0-.06,0S234.32,173.17,234.31,173.19Z"/><path class="cls-4" d="M246.37,130.28a1.46,1.46,0,0,1,0-2.1Z"/><path class="cls-5" d="M106.82,93.89a34,34,0,0,1,3.59-5,76.74,76.74,0,0,1,51.43-28.3,74.84,74.84,0,0,1,20.22.51,75.63,75.63,0,0,1,18.25,5.23,72.27,72.27,0,0,1,17.48,10.45,77.19,77.19,0,0,1,7.15,6.38,75.51,75.51,0,0,1,9.37,11.72,73.36,73.36,0,0,1,4.32,7.56,2.18,2.18,0,0,1-1.21.15H175.7c-1.24,0-2.48,0-3.71.07a33.07,33.07,0,0,0-16.08,3.13c-12.49,6.15-19.06,16.26-19.83,30.13a33.81,33.81,0,0,0,1.32,10.62c-1.24-1.25-1.78-2.92-2.67-4.38-1.3-2.14-2.5-4.36-3.75-6.54l-7-12.17c-1.55-2.7-3.08-5.42-4.64-8.12-2.52-4.38-5.07-8.75-7.61-13.13q-2.33-4-4.64-8A1.38,1.38,0,0,0,106.82,93.89Z"/><path class="cls-6" d="M137.4,146.53a33.81,33.81,0,0,1-1.32-10.62c.77-13.87,7.34-24,19.83-30.13A33.07,33.07,0,0,1,172,102.65a22.14,22.14,0,0,1,3.43.49,32.19,32.19,0,0,1,11.83,4.42,33.81,33.81,0,0,1,12,12.32,38.66,38.66,0,0,1,3.35,8.22,33.72,33.72,0,0,1,1,11.91,30.69,30.69,0,0,1-1.85,8.38,37,37,0,0,1-6.5,11c-.46,0-.52.41-.74.63a34.21,34.21,0,0,1-57.11-13.53Zm61-9.8A28,28,0,1,0,170.9,164.8,28,28,0,0,0,198.38,136.73Z"/><path class="cls-4" d="M175.42,103.14a22.14,22.14,0,0,0-3.43-.49c1.23,0,2.47-.07,3.71-.07h61.72a2.18,2.18,0,0,0,1.21-.15c0,.13.05.26.08.38H176.48C176.1,102.83,175.7,102.79,175.42,103.14Z"/><path class="cls-4" d="M238.72,169.93a1.64,1.64,0,0,1-.69,1.19A1.09,1.09,0,0,1,238.72,169.93Z"/><path class="cls-4" d="M238,171.11c0,.31,0,.67-.4.78C237.6,171.53,237.61,171.21,238,171.11Z"/><path class="cls-3" d="M236.09,174.6c-.68-.55-.07-.94.17-1.56.29.68-.22,1.08-.16,1.56Z"/><path class="cls-3" d="M234.31,173.19s0-.05,0-.06,0,0,.06,0,0,.05,0,.06S234.33,173.2,234.31,173.19Z"/><path class="cls-7" d="M198.38,136.73a28,28,0,1,1-28.19-28A28,28,0,0,1,198.38,136.73Z"/><path id="Path_582" data-name="Path 582" class="cls-8" d="M183.49,79.92c1.82-11.24-3.4-14.75-3.4-14.75,3.74,7.41-3.89,13.33-3.89,13.33a16.17,16.17,0,0,0-1.65-11.59c-2.06,13-24.89,11.12-40.75,6.67s-44.29,20.51,6,28.86,49-33,49-33C187.72,78.83,183.49,79.92,183.49,79.92Z"/><path id="Path_585" data-name="Path 585" class="cls-9" d="M175,74.88a6.92,6.92,0,0,1-.12,2.4,3,3,0,0,1-1,1.15c-.34.3-.68.6-1.05.87s-1.05.51-1.16.75l1.82-3.9a9.61,9.61,0,0,0,1.24-4.21C174.79,72.92,174.9,73.89,175,74.88Z"/><path id="Path_586" data-name="Path 586" class="cls-9" d="M182,70.23c-.74,3.71-1.12,7.56-1.68,11.3a3.19,3.19,0,0,0,1.59-2.23A14.94,14.94,0,0,0,182,70.23Z"/><path id="Path_589" data-name="Path 589" class="cls-9" d="M183.22,91.17c.48-1.11.95-2.22,1.39-3.36a3.76,3.76,0,0,1-.45,2.72A16.3,16.3,0,0,1,182,94.44a5.49,5.49,0,0,1-3.8,2.14,5.91,5.91,0,0,0,3.39-2.36A9,9,0,0,0,183.22,91.17Z"/><path id="Rectangle_612" data-name="Rectangle 612" class="cls-10" d="M242.19,211.21h5.74c1.07,0,1.94.5,1.94,1.13h0c0,.62-.87,1.12-1.94,1.12h-5.74c-1.08,0-1.95-.5-1.95-1.12h0C240.24,211.71,241.11,211.21,242.19,211.21Z"/><path id="Rectangle_612-2" data-name="Rectangle 612" class="cls-10" d="M108.4,211.21h126c1.07,0,1.94.5,1.94,1.13h0c0,.62-.87,1.12-1.94,1.12h-126c-1.08,0-2-.5-2-1.12h0C106.45,211.71,107.32,211.21,108.4,211.21Z"/><path class="cls-9" d="M130.69,99.1a7,7,0,0,0-3.29-2.94,42.71,42.71,0,0,1-4-2,9.51,9.51,0,0,1-3.77-10.64,5.73,5.73,0,0,0-4.78,4.4,7.15,7.15,0,0,0,1.92,6.37,7.87,7.87,0,0,0,6.31,2.36A12.73,12.73,0,0,1,130.69,99.1Z"/><path class="cls-11" d="M214.26,188.74a.58.58,0,1,1,.72-.32A.54.54,0,0,1,214.26,188.74Z"/><path class="cls-12" d="M210.56,184a.89.89,0,0,1-.81-.76.1.1,0,0,0-.05-.1c-.06-.07,0-.16-.06-.23s.12-.23.09-.36a1.41,1.41,0,0,1,1-.75,1.68,1.68,0,0,1,.67,0,.2.2,0,0,1,.19.15,5.24,5.24,0,0,1,.27.65A1.25,1.25,0,0,1,211,184s-.06,0-.09,0-.1,0-.13,0h0l0,0h0S210.6,184,210.56,184Zm-.2-.81c.06-.09.14,0,.2-.06a.21.21,0,0,0,0-.06c-.1,0-.12-.11-.23-.1s-.09,0-.1.07S210.36,183.12,210.36,183.21Zm.7.51c-.16-.14-.27.11-.4,0,0,.05-.07.06,0,.12S210.88,183.74,211.06,183.72Zm0-1.49c0-.08,0-.13,0-.14s-.2,0-.19.09.14-.06.2,0S211,182.28,211.05,182.23Zm-.75,1.18,0,0,0-.05s0,0,0-.06A.49.49,0,0,1,210.3,183.41Z"/><path class="cls-13" d="M220.53,196.18a7.8,7.8,0,0,1-1.08-.15l-2.6-.38-3.19-.47c-.2,0-.15-.15-.15-.27.08-.4.16-.8.21-1.2a.35.35,0,0,0,0-.3l-.74-1.8c-.45-1.07-.9-2.14-1.36-3.21l5.47,2a.39.39,0,0,0,.21.06,3.86,3.86,0,0,0,.49.06,2.29,2.29,0,0,0,2.12-1.35c.22-.42.35-.89.53-1.33a19.37,19.37,0,0,0,.81-2.69c.13-.55.28-1.09.42-1.63s.28-1,.41-1.55a2.48,2.48,0,0,1,1.17-1.73.85.85,0,0,0,.25-.13.11.11,0,0,0,.13,0l.62-.07.4,0c-.07.18-.14.37-.22.55a3,3,0,0,0-.26,1,.69.69,0,0,0,.33.67v.12a2,2,0,0,0-.14.59,3.74,3.74,0,0,0-.17.57,2.53,2.53,0,0,0-.14.59c-.09.18-.09.39-.17.57l-.14.59-.17.57a5.63,5.63,0,0,1-.14.59,3.87,3.87,0,0,0-.13.59,3.31,3.31,0,0,0-.17.56c-.08.29-.14.58-.21.87l-.1.3c0,.2-.12.39-.14.59a3.77,3.77,0,0,0-.14.58,3.83,3.83,0,0,0-.16.58c0,.2-.13.38-.14.58a2.51,2.51,0,0,1-.28.54,1.64,1.64,0,0,1-.57.57.38.38,0,0,0-.23.41,9.53,9.53,0,0,0-.2,1.19,2.12,2.12,0,0,0-.11.61,2.35,2.35,0,0,0-.1.59,2.51,2.51,0,0,0-.1.61A3.25,3.25,0,0,0,220.53,196.18Z"/><path class="cls-14" d="M216.67,167.48l.35-.27.28-.16.48-.16.52,0a2.73,2.73,0,0,1,.8.18l5.78,2.14a2.81,2.81,0,0,1,.55.27l.22.18a3.26,3.26,0,0,1,.43.55c0,.05,0,.09.06.11s0,.11.05.16a2.21,2.21,0,0,1,.15,1.22l-.05.28-.15.47-2.89,7.84a2.48,2.48,0,0,0-1.17,1.73c-.13.52-.27,1-.41,1.55s-.29,1.08-.42,1.63a19.37,19.37,0,0,1-.81,2.69c-.18.44-.31.91-.53,1.33a2.29,2.29,0,0,1-2.12,1.35,3.86,3.86,0,0,1-.49-.06l-5.56-2.06-.11,0-.66-.26-.4-.24a4.19,4.19,0,0,1-.46-.48.35.35,0,0,0-.09-.16l-.24-.57,0-.17a4.57,4.57,0,0,1,0-.64l.12-.56.22-.64a1.39,1.39,0,0,0,.1-.26c0-.16.12-.26.29-.19a1.28,1.28,0,0,0,.82,0l-.54,1.45c-.05.13,0,.17.09.21l8,3c.17.06.23,0,.29-.15q3.13-8.52,6.28-17c.07-.18.06-.24-.12-.31q-4-1.46-8-2.94c-.16-.06-.22,0-.29.14l-4.45,12.09-.61,1.63c-.21-.39-.36-.8-.53-1.2,0,0,0-.08,0-.12a1,1,0,0,0,.11-.3,7.94,7.94,0,0,0,.31-.81.26.26,0,0,1,.24-.2,1.4,1.4,0,0,0,1.08-1.94l-.27-.66V177l.18-.5a.75.75,0,0,0,.06-.13c.42-1.12.84-2.25,1.25-3.38a.66.66,0,0,0,0-.15l1.56-4.23a3.27,3.27,0,0,1,.35-.73Zm5.09,1.13-1.48-.55c-.12,0-.23,0-.27.09s0,.21.14.25l3,1.09a.2.2,0,0,0,.29-.1c0-.13,0-.19-.16-.23Zm-7.48,20.21a.55.55,0,0,0,.72-.32.55.55,0,1,0-.72.32Z"/><path class="cls-12" d="M224.5,182.28a.69.69,0,0,1-.33-.67,3,3,0,0,1,.26-1c.08-.18.15-.37.22-.55l.21,0a.21.21,0,0,1,.13.09s0,.09,0,.12c-.23.13-.12.31-.1.48a.28.28,0,0,1,0,.22,1.07,1.07,0,0,0-.09.34c0,.11-.16.22-.14.25s0,.22,0,.33A2,2,0,0,1,224.5,182.28Z"/><path class="cls-15" d="M212,182.25l.61-1.63L217,168.53c.07-.17.13-.2.29-.14q4,1.49,8,2.94c.18.07.19.13.12.31q-3.14,8.51-6.28,17c-.06.18-.12.21-.29.15l-8-3c-.12,0-.14-.08-.09-.21l.54-1.45a1.81,1.81,0,0,0,.51-.41A1.49,1.49,0,0,0,212,182.25Z"/><path class="cls-13" d="M212,182.25a1.49,1.49,0,0,1-.2,1.53,1.81,1.81,0,0,1-.51.41,1.28,1.28,0,0,1-.82,0c-.15-.09-.25,0-.29.14a2.34,2.34,0,0,1-.09.24c-.52-1.21-1.05-2.41-1.53-3.64v-.09a1.47,1.47,0,0,1,.2-.91,1.6,1.6,0,0,1,.66-.58l.1,0a4.16,4.16,0,0,1,.61,0,2.34,2.34,0,0,1,.51.23,1.27,1.27,0,0,1,.36.44c.14.32.28.63.41.95h.05s0,.09,0,.12C211.61,181.45,211.76,181.86,212,182.25Zm-1.19,1.84h0a.12.12,0,0,0,.14,0s.06,0,.09,0a1.26,1.26,0,0,0,.85-1.4,6.32,6.32,0,0,0-.27-.65.22.22,0,0,0-.19-.16,1.74,1.74,0,0,0-.68,0,1.45,1.45,0,0,0-1,.74c-.05.12-.28.19-.08.36,0,.08,0,.17.06.23a.09.09,0,0,0,.05.11.89.89,0,0,0,.8.76s.08,0,.12,0h0Z"/><path class="cls-13" d="M212.9,177l.27.66a1.4,1.4,0,0,1-1.08,1.94.26.26,0,0,0-.24.2,7.94,7.94,0,0,1-.31.81l-.09-.11a1.79,1.79,0,0,0-.19-.45.79.79,0,0,0-.13-.31,1,1,0,0,0-.19-.45.51.51,0,0,0-.13-.31,3.16,3.16,0,0,0-.16-.43l-.13-.31a2.53,2.53,0,0,0-.19-.45,1.09,1.09,0,0,0-.15-.35,3,3,0,0,0-.18-.41l-.13-.38v-.31a1.4,1.4,0,0,1,.52-1.08l0,0,.08,0a1.25,1.25,0,0,1,1.18-.14,1.37,1.37,0,0,1,.57.47c.12.16.15.36.26.52a4.71,4.71,0,0,0,.33.76.2.2,0,0,0,.06.15Zm-1.55,2.15h0c0,.08.11.07.16.1s0,0,0,0l0,0a.29.29,0,0,0,.14.08,1.27,1.27,0,0,0,1.28-.8.62.62,0,0,0,.07-.48.8.8,0,0,0-.11-.48c-.13-.3-.26-.6-.66-.52a3.55,3.55,0,0,0-.47.09,1.11,1.11,0,0,0-.69.49c-.15.15-.32.29-.32.53l0,0,0,.11a1,1,0,0,0,.23.55A.45.45,0,0,0,211.35,179.17Z"/><path class="cls-11" d="M221.76,168.61l1.48.55c.12,0,.2.1.16.23a.2.2,0,0,1-.29.1l-3-1.09c-.12,0-.19-.13-.14-.25s.15-.13.27-.09Z"/><path class="cls-12" d="M210.84,178.25l0,0c.05-.21.26-.32.32-.53a1.11,1.11,0,0,1,.69-.49,3.55,3.55,0,0,1,.47-.09c.4-.08.53.22.66.52a.8.8,0,0,1,.11.48c0,.16-.17.31-.07.48a1.27,1.27,0,0,1-1.28.8.29.29,0,0,1-.14-.08.78.78,0,0,1,.12-.22l.07-.06c.12.16.15,0,.21-.07s.05-.08,0-.11a.11.11,0,0,0-.14,0,.41.41,0,0,0-.17.25s0-.09,0-.13c-.1.11-.18.24-.34.22h0c0-.19-.14-.18-.23-.26a1,1,0,0,1-.23-.55A.09.09,0,0,0,210.84,178.25Zm1.07.43s.05,0,.05,0a.07.07,0,0,0,0-.06s0,0-.05,0S211.89,178.67,211.91,178.68Zm-.2.1s0,0,0,0v0l0,0A0,0,0,0,0,211.71,178.78Z"/><path class="cls-13" d="M213,176.33l-.05-.1a3.71,3.71,0,0,0-.27-.65l-.05-.11a3.36,3.36,0,0,0-.28-.65l0-.1L212,174l0-.05a3.39,3.39,0,0,0-.31-.67s0-.06,0-.09a.76.76,0,0,0-.08-.21,1.45,1.45,0,0,1-.07-1.12,1.38,1.38,0,0,1,.93-.89.13.13,0,0,0,.1,0,1.89,1.89,0,0,1,.58,0,1.62,1.62,0,0,1,.5.27l.17.19.21.42a1.19,1.19,0,0,0,.15.35,1.78,1.78,0,0,0,.17.4l0,.18c-.44,1.21-.89,2.42-1.33,3.64Z"/><path class="cls-11" d="M119.79,187.84a.61.61,0,0,0,.31-.81.6.6,0,0,0-.78-.37.62.62,0,0,0-.32.83A.61.61,0,0,0,119.79,187.84Z"/><path class="cls-12" d="M123.7,182.68h0l-.06,0h0c0-.09-.1-.06-.15,0s-.07,0-.1,0a1.38,1.38,0,0,1-.93-1.53,5.6,5.6,0,0,1,.3-.71.22.22,0,0,1,.21-.17,1.8,1.8,0,0,1,.73,0,1.55,1.55,0,0,1,1.06.81c0,.15.07.26.1.4s0,.18-.07.25a.11.11,0,0,0,0,.12,1,1,0,0,1-.88.82S123.75,182.66,123.7,182.68Zm.45-1.05c0-.07,0-.08-.11-.08s-.15.12-.25.1a.16.16,0,0,0,0,.07c.07.08.15,0,.23.06C124.05,181.68,124.17,181.71,124.15,181.63Zm-.37.85c0-.06,0-.08-.06-.12s-.26-.17-.44,0C123.48,182.37,123.59,182.58,123.78,182.48Zm-.45-1.79c.06-.09.19.16.22,0s-.13-.12-.21-.11-.08.07,0,.16S123.31,180.72,123.33,180.69Zm.74,1.22s0,0,0,.07a.09.09,0,0,0,0,.05l0,0S124.08,181.9,124.07,181.91Z"/><path class="cls-13" d="M112.93,196a11.74,11.74,0,0,0,1.19-.16l2.84-.43c1.16-.17,2.32-.35,3.49-.51.21,0,.16-.16.16-.29-.09-.44-.18-.87-.23-1.32a.4.4,0,0,1,0-.32c.28-.66.54-1.32.82-2,.49-1.17,1-2.34,1.48-3.51l-6,2.2a.44.44,0,0,1-.23.06,4.81,4.81,0,0,1-.53.07,2.5,2.5,0,0,1-2.32-1.47c-.24-.47-.38-1-.58-1.46a21.59,21.59,0,0,1-.88-2.94c-.15-.6-.31-1.19-.47-1.78s-.3-1.13-.44-1.7a2.68,2.68,0,0,0-1.28-1.89.7.7,0,0,1-.27-.14.11.11,0,0,1-.14,0l-.69-.07-.43,0c.08.2.15.41.24.61A3,3,0,0,1,109,180a.72.72,0,0,1-.36.73v.13a2.84,2.84,0,0,1,.15.64,4.57,4.57,0,0,1,.19.63,3.5,3.5,0,0,1,.15.64c.1.2.09.43.18.63l.15.64.19.63c0,.22.12.42.15.64a3.5,3.5,0,0,1,.15.64,3.38,3.38,0,0,1,.18.62c.09.31.15.63.23.95l.11.33c0,.22.13.42.15.64a2.84,2.84,0,0,1,.15.64c.11.2.1.43.19.63s.14.42.15.64a2.45,2.45,0,0,0,.3.58,1.81,1.81,0,0,0,.63.63.42.42,0,0,1,.25.44c.09.43.17.87.22,1.31a2.46,2.46,0,0,1,.11.66,2.39,2.39,0,0,1,.11.65,2.17,2.17,0,0,1,.11.66A3.06,3.06,0,0,1,112.93,196Z"/><path class="cls-14" d="M117.5,165a4,4,0,0,1,.39.8c.57,1.54,1.13,3.09,1.7,4.63,0,.06,0,.11,0,.17l1.37,3.69a.52.52,0,0,0,.06.13l.21.55V175l-.3.72a1.53,1.53,0,0,0,1.18,2.12.28.28,0,0,1,.26.22,8.61,8.61,0,0,0,.34.89,1.2,1.2,0,0,0,.13.33s0,.09,0,.12c-.2.44-.36.89-.59,1.31l-.66-1.77q-2.44-6.61-4.87-13.22c-.07-.19-.14-.22-.31-.15-2.9,1.08-5.81,2.15-8.71,3.21-.2.07-.21.15-.14.34q3.45,9.3,6.87,18.6c.07.2.13.24.32.17q4.38-1.64,8.77-3.24c.13,0,.15-.09.1-.22-.2-.53-.39-1.06-.59-1.6a1.3,1.3,0,0,0,.89,0c.19-.07.27,0,.32.21a1.36,1.36,0,0,0,.11.28l.25.7.12.61a4.05,4.05,0,0,1,0,.7l0,.19-.25.62a.42.42,0,0,0-.11.18,4.1,4.1,0,0,1-.5.52l-.43.27-.72.28-.12,0-6.09,2.25a4.81,4.81,0,0,1-.53.07,2.5,2.5,0,0,1-2.32-1.47c-.24-.47-.38-1-.58-1.46a21.59,21.59,0,0,1-.88-2.94c-.15-.6-.31-1.19-.47-1.78s-.3-1.13-.44-1.7a2.68,2.68,0,0,0-1.28-1.89c-1-2.86-2.11-5.71-3.16-8.57-.06-.17-.11-.34-.16-.51l-.06-.31a2.51,2.51,0,0,1,.16-1.33,1.27,1.27,0,0,0,.06-.18s0-.07.06-.11a3.23,3.23,0,0,1,.48-.61l.24-.2a3.36,3.36,0,0,1,.6-.3l6.32-2.33a3.15,3.15,0,0,1,.87-.2l.57,0,.52.17.31.17.38.3ZM110,166.42c-.13.05-.22.12-.17.26s.18.16.31.11l3.24-1.19a.22.22,0,0,0,.16-.28c-.05-.13-.18-.14-.3-.09l-1.62.6Zm10.11,20.69a.6.6,0,0,0-.78-.36.63.63,0,0,0,.47,1.17A.6.6,0,0,0,120.08,187.11Z"/><path class="cls-12" d="M108.59,180.77A.72.72,0,0,0,109,180a3,3,0,0,0-.28-1.11c-.09-.2-.16-.41-.24-.61l-.23,0a.23.23,0,0,0-.14.09s-.06.1,0,.14c.25.14.12.34.11.52a.25.25,0,0,0,0,.24,1.05,1.05,0,0,1,.09.38c0,.12.18.24.16.27s0,.24,0,.35A2.27,2.27,0,0,0,108.59,180.77Z"/><path class="cls-15" d="M122.29,180.73l-.66-1.77q-2.44-6.61-4.87-13.22c-.07-.19-.14-.22-.31-.15-2.9,1.08-5.81,2.15-8.71,3.21-.2.07-.21.15-.14.34q3.45,9.3,6.87,18.6c.07.2.13.24.32.17q4.38-1.64,8.77-3.24c.13,0,.15-.09.1-.22-.2-.53-.39-1.06-.59-1.6a1.68,1.68,0,0,1-.56-.44A1.63,1.63,0,0,1,122.29,180.73Z"/><path class="cls-13" d="M122.88,179.42s0-.08,0-.12l0,0c.15-.34.3-.69.46-1a1.41,1.41,0,0,1,.38-.49,2.41,2.41,0,0,1,.57-.25,3.66,3.66,0,0,1,.66,0l.11,0a1.77,1.77,0,0,1,.72.64,1.56,1.56,0,0,1,.22,1,.37.37,0,0,0,0,.11c-.53,1.34-1.12,2.65-1.68,4a1.86,1.86,0,0,1-.1-.25c0-.21-.15-.25-.32-.16a1.3,1.3,0,0,1-.89,0,1.68,1.68,0,0,1-.56-.44,1.63,1.63,0,0,1-.22-1.68C122.52,180.31,122.68,179.86,122.88,179.42Zm.77,3.35h0a.12.12,0,0,0,.14,0,1,1,0,0,0,.88-.83s.06-.06,0-.12,0-.17.07-.25c.21-.19,0-.27-.1-.39a1.57,1.57,0,0,0-1-.82,2.07,2.07,0,0,0-.74,0,.25.25,0,0,0-.21.17,5.74,5.74,0,0,0-.3.72,1.39,1.39,0,0,0,.93,1.53s.07,0,.1,0a.12.12,0,0,0,.15,0h0Z"/><path class="cls-13" d="M121.29,175a.27.27,0,0,0,.08-.17,6.89,6.89,0,0,0,.35-.83c.12-.17.16-.4.29-.57a1.4,1.4,0,0,1,.62-.51,1.39,1.39,0,0,1,1.29.15.25.25,0,0,0,.09,0l0,0a1.71,1.71,0,0,1,.42.54,1.62,1.62,0,0,1,.15.64v.33l-.15.43a2.92,2.92,0,0,0-.19.44,1.14,1.14,0,0,0-.16.38,2.81,2.81,0,0,0-.22.5l-.13.33a2.15,2.15,0,0,0-.18.48.5.5,0,0,0-.14.33,1,1,0,0,0-.21.5.81.81,0,0,0-.14.33,2.13,2.13,0,0,0-.21.49l-.1.13a8.61,8.61,0,0,1-.34-.89.28.28,0,0,0-.26-.22,1.53,1.53,0,0,1-1.18-2.12l.3-.72Zm1.93,2.12a1.09,1.09,0,0,0,.26-.6l0-.12,0-.05c0-.26-.19-.41-.35-.58a1.26,1.26,0,0,0-.76-.54,4.17,4.17,0,0,0-.51-.09c-.44-.09-.58.24-.72.56a.89.89,0,0,0-.12.53.71.71,0,0,0,.07.53,1.4,1.4,0,0,0,1.4.87.24.24,0,0,0,.15-.09l0,0s0,0,0,0,.15,0,.18-.12h0A.46.46,0,0,0,123.22,177.09Z"/><path class="cls-11" d="M111.59,165.83l-1.62.59c-.13.05-.22.12-.17.26s.18.16.31.11l3.24-1.19a.22.22,0,0,0,.16-.28c-.05-.13-.18-.14-.3-.09Z"/><path class="cls-12" d="M123.48,176.49a1.09,1.09,0,0,1-.26.6c-.1.08-.28.07-.25.28h0c-.18,0-.26-.11-.37-.23,0,0,0,.1,0,.14a.45.45,0,0,0-.18-.28.12.12,0,0,0-.15,0,.11.11,0,0,0,0,.12c.06.06.09.25.23.08l.08.06c0,.08.11.14.12.24a.24.24,0,0,1-.15.09,1.4,1.4,0,0,1-1.4-.87c.11-.19-.08-.35-.07-.53a.89.89,0,0,1,.12-.53c.14-.32.28-.65.72-.56a4.17,4.17,0,0,1,.51.09,1.26,1.26,0,0,1,.76.54c.07.23.29.35.35.58l0,.05C123.47,176.39,123.46,176.43,123.48,176.49Zm-1.09.29s0-.06,0,0a.08.08,0,0,0,0,.06s0,0,.06,0A0,0,0,0,0,122.39,176.78Zm.18.2s0,0,0,0v0l0,0S122.56,177,122.57,177Z"/><path class="cls-13" d="M121.17,174.27l0-.11a5.78,5.78,0,0,1,.31-.72l0-.11a4.09,4.09,0,0,1,.3-.71l0-.12.29-.75,0-.06a6.07,6.07,0,0,1,.34-.73.1.1,0,0,1,0-.09,2.34,2.34,0,0,1,.09-.24,1.56,1.56,0,0,0,.08-1.22,1.49,1.49,0,0,0-1-1,.14.14,0,0,1-.11-.05,2.28,2.28,0,0,0-.64.05,1.74,1.74,0,0,0-.55.3l-.18.2-.23.46a1.61,1.61,0,0,1-.16.38,2,2,0,0,1-.19.44l-.06.2c.49,1.32,1,2.65,1.46,4Z"/><rect id="Rectangle_611" data-name="Rectangle 611" class="cls-16" x="157.44" y="142.32" width="13.84" height="41.04" transform="translate(-33.84 43.47) rotate(-13.68)"/><path id="Path_579" data-name="Path 579" class="cls-17" d="M173.76,85.26l-46.93,4.79-5.41,18.51,3.24,20.21s-8-3.11-3.31,5.87,14.76,8.22,14.76,8.22,10.2,4.95,25.8.78,24.53-11.92,24.53-11.92,8.25-4.08,7.91-13.25-5.62-4.79-5.62-4.79Z"/><path id="Path_590" data-name="Path 590" class="cls-9" d="M181.64,108.55a19,19,0,0,0-2.21-5.51c.34,2.22.7,4.43,1.06,6.64l.73,4.49a74.39,74.39,0,0,0,2.12,10.13,6.16,6.16,0,0,1,.62-3.13,4.53,4.53,0,0,0,.75-2,3.41,3.41,0,0,0-.36-1.29,38.07,38.07,0,0,1-2.73-10.06"/><path id="Path_591" data-name="Path 591" class="cls-18" d="M188,117.56c-1.63-.32-.81,3.59-.83,4.64a25.38,25.38,0,0,1-.79,5.61c-1.1,1,3.18-5.21,3.24-5.44C189.79,121.18,189.6,117.89,188,117.56Z"/><path id="Path_592" data-name="Path 592" class="cls-18" d="M127.53,133.21c1.05-.85,1.9,2.27,2.32,3a21.22,21.22,0,0,0,2.64,3.74,8.5,8.5,0,0,1-4.34-2.71C127.56,136.48,126.48,134.06,127.53,133.21Z"/><path class="cls-18" d="M169.59,163.88a1.86,1.86,0,0,1,.6-.46.85.85,0,0,1,1.3.85c-.36,2.37.19,4.78-.27,7.1-.13-7.52-3.14-5.75-6.53-7.15C166.85,164.65,167.42,164.07,169.59,163.88Z"/><path class="cls-19" d="M113.19,195.64l3.62,15.68H127.2l-7.27-18h-4.82A1.91,1.91,0,0,0,113.19,195.64Z"/><path class="cls-19" d="M221,196.44l-3.62,14.88H207l7.28-17.1h4.78A1.87,1.87,0,0,1,221,196.44Z"/><path class="cls-19" d="M132.48,211a48.56,48.56,0,0,1,1.78-5.35V211h63.88v-6.63c0-1,0-1.9-.14-2.83a47.6,47.6,0,0,1,3.64,9.46h10.82c-7.69-32.33-29.89-33.82-29.89-33.82a32,32,0,0,0-7.35.34,27.34,27.34,0,0,0-4.27-.34h-9.5a27,27,0,0,0-3.26.2,35.42,35.42,0,0,0-6.65-.2s-22.2,1.49-29.88,33.82Z"/><path class="cls-20" d="M118.4,94.65A54.43,54.43,0,0,1,112,90c-.09-.07,6.17,3.74,6.06,3.72-2-.45-3.73.46-5,4.9s-1.32,6-.27,10,14.31,25.19,17.33,26.73a.62.62,0,0,1,.28.23,37.74,37.74,0,0,0,3.2,4.14l10.66,12.77,5.33,6.39c.77.92,3.08,2.93,4.26,4.52a.73.73,0,0,0,1.15,0,3.32,3.32,0,0,1,3.14-1.14,5.67,5.67,0,0,1,2.44,1.24.72.72,0,0,0,1.16-.72v-.06a.73.73,0,0,1,1-.81l3.82,1.88a.73.73,0,0,0,.93-1.05l0,0a.72.72,0,0,1,.51-1.12l7-.91-1.24-.7a.73.73,0,0,1-.14-1.17l9.28-8.6a.74.74,0,0,0,.16-.88,12,12,0,0,0-1.31-1.89,5.34,5.34,0,0,1-1.26-2.55,2.11,2.11,0,0,1,1.31-2.3,1.28,1.28,0,0,1,1,.15.74.74,0,0,0,1.11-.43,97.75,97.75,0,0,0,2.59-16.85l0-.06,3.19-17.3a.54.54,0,0,0,0-.22l-1.13-9.58a9.71,9.71,0,0,0-9.36-8.56.74.74,0,0,1-.7-.53L178,87.41s0,0,0-.07c-.11-.69-2.12-11.71-14.76-11,0,0-12.23,1.67-21.24-.79s-14.74-3.77-20.29-.61-15.62,8.32-6.24,18.89a.74.74,0,0,0,.46.24l-4.28-4.11A.68.68,0,0,1,112,90Z"/><path class="cls-9" d="M138.89,137.28a24.86,24.86,0,0,0-7.76-8.66c-1.44-.94-3-1.67-4.38-2.7-3-2.26-4.9-5.73-6.67-9.09,2,5.86,5.84,10.93,9.79,15.71,2,2.42,4.07,4.79,6.13,7.16l13,14.94c-1.82-2.54-4-5-5.64-7.62C141.49,144.06,140.66,140.36,138.89,137.28Z"/><path class="cls-2" d="M115.26,180.7h-.13a2.84,2.84,0,0,1-.57-.1,3.06,3.06,0,0,1-.43-.13,6,6,0,0,1-.72-.35,4.34,4.34,0,0,1-.93-.77,4,4,0,0,1-.49-.68,4.13,4.13,0,0,1-.37-.8,4.52,4.52,0,0,1-.16-.73,3.42,3.42,0,0,1,0-.45,4,4,0,0,1,.06-.84,4.09,4.09,0,0,1,.29-1,3.14,3.14,0,0,1,.18-.37c.06-.09.1-.18.17-.27l0,0c.08.14.16.29.25.43l.41.72.25.44c.13.22.26.44.38.66l.21.36a1.88,1.88,0,0,0,.14.24,1.93,1.93,0,0,0,.59.87,1.81,1.81,0,0,0,1.58.38,1.76,1.76,0,0,0,.94-.52s0,0,0,0,0,.07-.05.11l-.86,1.46c-.07.13-.15.25-.22.39a.26.26,0,0,0-.07.1c-.06.12-.15.23-.2.35a1.4,1.4,0,0,1-.1.16,2.54,2.54,0,0,1-.16.28A.08.08,0,0,0,115.26,180.7Z"/><path class="cls-3" d="M115.8,179.77c.07-.14.15-.26.22-.39l.86-1.46s.06-.07.05-.11a2,2,0,0,0,.35-.6,1.82,1.82,0,0,0,.11-.46,2.05,2.05,0,0,0-.06-.65,2.39,2.39,0,0,0-.18-.44,1.82,1.82,0,0,0-.65-.67,1.56,1.56,0,0,0-.65-.24.07.07,0,0,1,.06,0h3.38a.35.35,0,0,1,.08.16,3.24,3.24,0,0,1,.19.52,2.47,2.47,0,0,1,.11.54.08.08,0,0,0,0,.06v.1a.08.08,0,0,0,0,.11v.67c0,.11,0,.23,0,.34a2.82,2.82,0,0,1-.07.31,3.64,3.64,0,0,1-.14.47c0,.12-.1.25-.16.37s0,0,0,.06h0s0,0,0,.05h0s-.17,0-.18,0-.07.05-.12.06,0,0,0,0l-.09,0s-.07,0-.09,0a.11.11,0,0,1-.08,0,.08.08,0,0,0-.08,0,.1.1,0,0,1-.08,0c-.06,0-.11.05-.17.05a.1.1,0,0,0-.09.05l0,0a.15.15,0,0,0-.13.07l0,0s-.09,0-.11.05,0,0-.05,0-.15.06-.23.06l0,0c0,.06-.08.06-.13.08a.55.55,0,0,1-.18.06l0,0,0,0a.44.44,0,0,0-.19.07c-.07,0-.13.08-.21.07a.05.05,0,0,0,0,0,.08.08,0,0,1-.08,0,.11.11,0,0,0-.09,0,.16.16,0,0,1-.09,0,.72.72,0,0,1-.19,0s0,0,0,0a.1.1,0,0,1-.1.05s0,0-.06,0a.15.15,0,0,1-.14.06s-.05,0-.07,0,0,0-.07,0,0,0,0-.06Z"/><path class="cls-4" d="M119.24,178.49a.31.31,0,0,1-.09.14s0,0,0-.08,0,0,0,.08a.23.23,0,0,1-.07.14,4,4,0,0,1-.47.61,4.35,4.35,0,0,1-.65.57,4.35,4.35,0,0,1-1.32.62l-.45.1a.76.76,0,0,0-.21,0h-.72a.08.08,0,0,1,0,0,2.54,2.54,0,0,0,.16-.28,1.4,1.4,0,0,0,.1-.16c0-.12.14-.23.2-.35a.26.26,0,0,1,.07-.1v0s0,0,0,.06.06,0,.07,0,0,0,.07,0a.15.15,0,0,0,.14-.06s0,0,.06,0a.1.1,0,0,0,.1-.05s0,0,0,0a.72.72,0,0,0,.19,0,.16.16,0,0,0,.09,0,.11.11,0,0,1,.09,0,.08.08,0,0,0,.08,0,.05.05,0,0,1,0,0c.08,0,.14-.05.21-.07a.44.44,0,0,1,.19-.07l0,0,0,0a.55.55,0,0,0,.18-.06s.1,0,.13-.08l0,0c.08,0,.15-.06.23-.06s0,0,.05,0,.07,0,.11-.05l0,0a.15.15,0,0,1,.13-.07l0,0a.1.1,0,0,1,.09-.05c.06,0,.11,0,.17-.05a.1.1,0,0,0,.08,0,.08.08,0,0,1,.08,0,.11.11,0,0,0,.08,0s.05,0,.09,0l.09,0s0,0,0,0,.09,0,.12-.06S119.19,178.46,119.24,178.49Zm-.18.07Z"/><path class="cls-4" d="M119.71,176.22a.08.08,0,0,1,0-.11Z"/><path class="cls-5" d="M112.12,174.24a1.71,1.71,0,0,1,.2-.27,4,4,0,0,1,.81-.78,4.27,4.27,0,0,1,2-.76,4,4,0,0,1,1.1,0,4.24,4.24,0,0,1,1,.28,4,4,0,0,1,1,.57,4.25,4.25,0,0,1,.39.35,5.3,5.3,0,0,1,.51.64c.08.13.16.27.23.41h-3.62a1.78,1.78,0,0,0-.88.17,1.81,1.81,0,0,0-1.08,1.64,1.92,1.92,0,0,0,.07.58,1.88,1.88,0,0,1-.14-.24l-.21-.36c-.12-.22-.25-.44-.38-.66l-.25-.44-.41-.72c-.09-.14-.17-.29-.25-.43Z"/><path class="cls-6" d="M113.78,177.11a1.92,1.92,0,0,1-.07-.58,1.81,1.81,0,0,1,1.08-1.64,1.78,1.78,0,0,1,.88-.17,1.13,1.13,0,0,1,.18,0,1.56,1.56,0,0,1,.65.24,1.82,1.82,0,0,1,.65.67,2.39,2.39,0,0,1,.18.44,2.05,2.05,0,0,1,.06.65,1.82,1.82,0,0,1-.11.46,2,2,0,0,1-.35.6s0,0,0,0a1.76,1.76,0,0,1-.94.52,1.81,1.81,0,0,1-1.58-.38A1.93,1.93,0,0,1,113.78,177.11Zm3.32-.54a1.52,1.52,0,1,0-1.49,1.53A1.52,1.52,0,0,0,117.1,176.57Z"/><path class="cls-4" d="M115.85,174.75a1.13,1.13,0,0,0-.18,0h3.62v0h-3.38A.07.07,0,0,0,115.85,174.75Z"/><path class="cls-4" d="M119.3,178.38s0,.05,0,.06S119.27,178.39,119.3,178.38Z"/><path class="cls-4" d="M119.26,178.44s0,0,0,.05S119.23,178.45,119.26,178.44Z"/><path class="cls-3" d="M119.15,178.63s0,0,0-.08,0,.06,0,.08Z"/><polygon class="cls-3" points="119.06 178.56 119.06 178.55 119.06 178.56 119.06 178.56 119.06 178.56"/><path class="cls-7" d="M117.1,176.57a1.52,1.52,0,1,1-1.53-1.52A1.52,1.52,0,0,1,117.1,176.57Z"/><image width="225" height="225" transform="translate(215.4 174.92) rotate(17.69) scale(0.03)" xlink:href="../../ie.jpg"/><path class="cls-21" d="M170.58,181.28c24.06-5.26,33.62,23.16,36.06,29.5l3.78.66a43.25,43.25,0,0,0-17.81-29,18,18,0,0,0-8.46-3.49,8.82,8.82,0,0,0-1.15-.49c-3.46-1.18-7.24-.72-10.86-.24,1.73-.09-2.07-.74-1.74,1a6.14,6.14,0,0,1,0,2"/><path class="cls-21" d="M162.11,181.28c-27.75-6.07-33.92,24-36.05,29.5l-3.78.66a43.21,43.21,0,0,1,17.81-29,17.93,17.93,0,0,1,8.46-3.49,8.27,8.27,0,0,1,1.15-.49c3.46-1.18,7.23-.72,10.86-.24-1.74-.09,2.07-.74,1.74,1a6.45,6.45,0,0,0-.06,2"/><rect class="cls-22" x="157.43" y="173.2" width="18.45" height="6.49" transform="translate(333.32 352.89) rotate(-180)"/></g></g></svg>