<svg xmlns="http://www.w3.org/2000/svg" xmlns:xlink="http://www.w3.org/1999/xlink" viewBox="0 0 388.33 277"><defs><style>.cls-1{fill:url(#linear-gradient);}.cls-2{fill:#7a4c48;stroke:#050505;}.cls-2,.cls-3{stroke-miterlimit:10;}.cls-3,.cls-6{fill:#fff;}.cls-3{stroke:#000;}.cls-4{fill:#e8e7e6;}.cls-5{fill:#020202;}</style><linearGradient id="linear-gradient" x1="-699.12" y1="736.87" x2="-698.7" y2="738.19" gradientTransform="matrix(-296, 0, 0, 211, -206730.83, -155489.12)" gradientUnits="userSpaceOnUse"><stop offset="0" stop-color="#2b9dff"/><stop offset="1" stop-color="#a52bff"/></linearGradient></defs><g id="Layer_2" data-name="Layer 2"><g id="Layer_1-2" data-name="Layer 1"><path id="Union_28" data-name="Union 28" class="cls-1" d="M388.33,0,279.22,232.15A78,78,0,0,1,208.38,277l-66.85-.19A137.86,137.86,0,0,1,53.36,245.1H31.22a4,4,0,0,1,0-7.92H44.57q-2-2-3.88-4H10.43a4.11,4.11,0,0,1-4.18-3.75,4,4,0,0,1,4-4.18H33.78A138.46,138.46,0,0,1,26.47,61.44H13.62A3.64,3.64,0,0,1,10,57.81h0a3.64,3.64,0,0,1,3.64-3.64H31.7q1.54-2,3.16-4H1.32A1.32,1.32,0,0,1,0,48.89H0a1.32,1.32,0,0,1,1.32-1.32H37.1A138.08,138.08,0,0,1,141.53,0Z"/><path id="Rectangle_612" data-name="Rectangle 612" class="cls-2" d="M243,195.37h6.54c1.23,0,2.22.58,2.22,1.29h0c0,.71-1,1.29-2.22,1.29H243c-1.23,0-2.22-.58-2.22-1.29h0C240.75,196,241.74,195.37,243,195.37Z"/><path id="Rectangle_612-2" data-name="Rectangle 612" class="cls-2" d="M90.43,195.37H234.08c1.23,0,2.23.58,2.23,1.29h0c0,.71-1,1.29-2.23,1.29H90.43c-1.22,0-2.22-.58-2.22-1.29h0C88.21,196,89.21,195.37,90.43,195.37Z"/><path class="cls-3" d="M230.87,194.5V71a12,12,0,0,0-12-12h-114a12,12,0,0,0-12,12V194.5Z"/><rect class="cls-4" x="107.37" y="85.5" width="107" height="17" rx="8.5"/><rect class="cls-4" x="107.37" y="113.5" width="75" height="18" rx="8.5"/><rect class="cls-4" x="107.37" y="145.5" width="107" height="19" rx="8.5"/><path class="cls-5" d="M217.11,133.46l-8.77-8.77a10.56,10.56,0,1,0-3.13,3.18l8.75,8.75a2.23,2.23,0,0,0,3.15,0h0A2.22,2.22,0,0,0,217.11,133.46Z"/><circle class="cls-6" cx="199.42" cy="119.05" r="8.07"/></g></g></svg>